<svg width="25" height="25" viewBox="0 0 25 25" fill="none" xmlns="http://www.w3.org/2000/svg">
<g clip-path="url(#clip0_925_587)">
<path d="M3.5 11.5H11.5V3.5H3.5V11.5ZM5.5 5.5H9.5V9.5H5.5V5.5Z" fill="#333333"/>
<path d="M3.5 21.5H11.5V13.5H3.5V21.5ZM5.5 15.5H9.5V19.5H5.5V15.5Z" fill="black"/>
<path d="M13.5 3.5V11.5H21.5V3.5H13.5ZM19.5 9.5H15.5V5.5H19.5V9.5Z" fill="black"/>
<path d="M21.5 19.5H19.5V21.5H21.5V19.5Z" fill="black"/>
<path d="M15.5 13.5H13.5V15.5H15.5V13.5Z" fill="black"/>
<path d="M17.5 15.5H15.5V17.5H17.5V15.5Z" fill="black"/>
<path d="M15.5 17.5H13.5V19.5H15.5V17.5Z" fill="black"/>
<path d="M17.5 19.5H15.5V21.5H17.5V19.5Z" fill="black"/>
<path d="M19.5 17.5H17.5V19.5H19.5V17.5Z" fill="black"/>
<path d="M19.5 13.5H17.5V15.5H19.5V13.5Z" fill="black"/>
<path d="M21.5 15.5H19.5V17.5H21.5V15.5Z" fill="black"/>
</g>
<defs>
<clipPath id="clip0_925_587">
<rect width="24" height="24" fill="white" transform="translate(0.5 0.5)"/>
</clipPath>
</defs>
</svg>
