<svg width="114" height="37" viewBox="0 0 114 37" fill="none" xmlns="http://www.w3.org/2000/svg">
<path d="M9.22332 5.31718C9.22332 6.40268 8.88999 7.27206 8.23332 7.92043C7.47832 8.68905 6.49499 9.0758 5.28999 9.0758C4.13833 9.0758 3.15499 8.68255 2.34832 7.90743C1.53999 7.12093 1.13666 6.15568 1.13666 5.0003C1.13666 3.84493 1.53999 2.87968 2.34832 2.09968C3.15499 1.31806 4.13833 0.924805 5.28999 0.924805C5.86333 0.924805 6.40999 1.04018 6.93165 1.25468C7.45165 1.4708 7.87499 1.7633 8.18165 2.12405L7.48499 2.80981C6.94999 2.19393 6.22166 1.89006 5.28999 1.89006C4.44999 1.89006 3.72166 2.17605 3.10333 2.75293C2.49166 3.33143 2.18499 4.08055 2.18499 5.0003C2.18499 5.92005 2.49166 6.67568 3.10333 7.25418C3.72166 7.82455 4.44999 8.11705 5.28999 8.11705C6.18166 8.11705 6.93166 7.82455 7.52333 7.24768C7.91333 6.8658 8.13499 6.3393 8.19333 5.66655H5.28999V4.7273H9.16332C9.20999 4.93043 9.22332 5.12705 9.22332 5.31718V5.31718Z" fill="white" stroke="white" stroke-width="0.16" stroke-miterlimit="10"/>
<path d="M15.3683 2.06064H11.73V4.53064H15.01V5.46989H11.73V7.93989H15.3683V8.89701H10.7V1.10352H15.3683V2.06064Z" fill="white" stroke="white" stroke-width="0.16" stroke-miterlimit="10"/>
<path d="M19.705 8.89701H18.675V2.06064H16.4433V1.10352H21.9383V2.06064H19.705V8.89701V8.89701Z" fill="white" stroke="white" stroke-width="0.16" stroke-miterlimit="10"/>
<path d="M25.915 8.89701V1.10352H26.9433V8.89701H25.915Z" fill="white" stroke="white" stroke-width="0.16" stroke-miterlimit="10"/>
<path d="M31.5016 8.89701H30.48V2.06064H28.24V1.10352H33.7416V2.06064H31.5016V8.89701Z" fill="white" stroke="white" stroke-width="0.16" stroke-miterlimit="10"/>
<path d="M44.145 7.89443C43.3566 8.68255 42.38 9.0758 41.215 9.0758C40.0433 9.0758 39.0666 8.68255 38.2783 7.89443C37.4916 7.10793 37.1 6.14268 37.1 5.0003C37.1 3.85793 37.4916 2.89268 38.2783 2.10618C39.0666 1.31805 40.0433 0.924805 41.215 0.924805C42.3733 0.924805 43.35 1.31805 44.1383 2.11268C44.9317 2.90568 45.3233 3.86443 45.3233 5.0003C45.3233 6.14268 44.9316 7.10793 44.145 7.89443ZM39.04 7.24118C39.6333 7.82455 40.355 8.11705 41.215 8.11705C42.0683 8.11705 42.7966 7.82455 43.3833 7.24118C43.975 6.6578 44.275 5.90868 44.275 5.0003C44.275 4.09193 43.975 3.34281 43.3833 2.75943C42.7966 2.17606 42.0683 1.88355 41.215 1.88355C40.355 1.88355 39.6333 2.17606 39.04 2.75943C38.4483 3.34281 38.1483 4.09193 38.1483 5.0003C38.1483 5.90868 38.4483 6.6578 39.04 7.24118V7.24118Z" fill="white" stroke="white" stroke-width="0.16" stroke-miterlimit="10"/>
<path d="M46.7683 8.89701V1.10352H48.0183L51.905 7.16476H51.95L51.905 5.66651V1.10352H52.9333V8.89701H51.86L47.79 2.53677H47.745L47.79 4.04151V8.89701H46.7683V8.89701Z" fill="white" stroke="white" stroke-width="0.16" stroke-miterlimit="10"/>
<path d="M36.8467 20.2783C33.715 20.2783 31.1567 22.602 31.1567 25.8082C31.1567 28.9883 33.715 31.3364 36.8467 31.3364C39.985 31.3364 42.5433 28.9883 42.5433 25.8082C42.5433 22.602 39.985 20.2783 36.8467 20.2783ZM36.8467 29.1589C35.1283 29.1589 33.65 27.776 33.65 25.8082C33.65 23.8143 35.1283 22.4558 36.8467 22.4558C38.565 22.4558 40.05 23.8143 40.05 25.8082C40.05 27.776 38.565 29.1589 36.8467 29.1589V29.1589ZM24.4317 20.2783C21.2933 20.2783 18.7417 22.602 18.7417 25.8082C18.7417 28.9883 21.2933 31.3364 24.4317 31.3364C27.5683 31.3364 30.1217 28.9883 30.1217 25.8082C30.1217 22.602 27.5683 20.2783 24.4317 20.2783ZM24.4317 29.1589C22.7117 29.1589 21.2283 27.776 21.2283 25.8082C21.2283 23.8143 22.7117 22.4558 24.4317 22.4558C26.15 22.4558 27.6283 23.8143 27.6283 25.8082C27.6283 27.776 26.15 29.1589 24.4317 29.1589ZM9.65833 21.9732V24.3229H15.4133C15.245 25.6359 14.795 26.6012 14.105 27.2739C13.265 28.0864 11.9567 28.9883 9.65833 28.9883C6.11666 28.9883 3.34333 26.2014 3.34333 22.7483C3.34333 19.2952 6.11666 16.5083 9.65833 16.5083C11.5733 16.5083 12.9667 17.2379 13.995 18.1837L15.6933 16.5278C14.255 15.1888 12.3417 14.1602 9.65833 14.1602C4.80166 14.1602 0.720001 18.013 0.720001 22.7483C0.720001 27.4835 4.80166 31.3364 9.65833 31.3364C12.2833 31.3364 14.255 30.4979 15.805 28.9249C17.3933 27.3763 17.8883 25.1988 17.8883 23.4405C17.8883 22.8945 17.8417 22.3924 17.7583 21.9732H9.65833ZM70.0683 23.7948C69.6 22.5582 68.155 20.2783 65.2116 20.2783C62.295 20.2783 59.8666 22.5192 59.8666 25.8082C59.8666 28.9054 62.27 31.3364 65.4916 31.3364C68.0966 31.3364 69.6 29.7878 70.2183 28.8859L68.285 27.6298C67.64 28.5495 66.7616 29.1589 65.4916 29.1589C64.23 29.1589 63.325 28.595 62.745 27.4835L70.33 24.4237L70.0683 23.7948V23.7948ZM62.335 25.6359C62.27 23.5039 64.0333 22.4119 65.2966 22.4119C66.2866 22.4119 67.1266 22.8945 67.4066 23.5852L62.335 25.6359V25.6359ZM56.17 31H58.6633V14.75H56.17V31ZM52.0866 21.51H52.0033C51.4433 20.8633 50.375 20.2783 49.0217 20.2783C46.1817 20.2783 43.585 22.7093 43.585 25.826C43.585 28.9249 46.1817 31.3364 49.0217 31.3364C50.375 31.3364 51.4433 30.7465 52.0033 30.0803H52.0866V30.8733C52.0866 32.9874 50.9283 34.1233 49.06 34.1233C47.5366 34.1233 46.5917 33.0508 46.2017 32.1489L44.0333 33.0313C44.6583 34.497 46.3133 36.3008 49.06 36.3008C51.9833 36.3008 54.45 34.6238 54.45 30.5434V20.6147H52.0866V21.51V21.51ZM49.235 29.1589C47.5167 29.1589 46.0783 27.7565 46.0783 25.826C46.0783 23.8777 47.5167 22.4558 49.235 22.4558C50.9283 22.4558 52.2633 23.8777 52.2633 25.826C52.2633 27.7565 50.9283 29.1589 49.235 29.1589V29.1589ZM81.7416 14.75H75.7783V31H78.265V24.8429H81.7416C84.5033 24.8429 87.2116 22.8945 87.2116 19.7957C87.2116 16.6984 84.4966 14.75 81.7416 14.75V14.75ZM81.8066 22.5825H78.265V17.0104H81.8066C83.6633 17.0104 84.7233 18.5135 84.7233 19.7957C84.7233 21.0534 83.6633 22.5825 81.8066 22.5825ZM97.1783 20.2474C95.3816 20.2474 93.5133 21.0209 92.745 22.7353L94.9516 23.6372C95.4266 22.7353 96.3 22.4428 97.2233 22.4428C98.5133 22.4428 99.8216 23.1984 99.8416 24.5325V24.7032C99.3916 24.4497 98.4283 24.0743 97.2433 24.0743C94.8666 24.0743 92.445 25.3499 92.445 27.7305C92.445 29.908 94.3916 31.3104 96.58 31.3104C98.2533 31.3104 99.1766 30.5743 99.7566 29.7179H99.8416V30.974H102.243V24.7405C102.243 21.8594 100.037 20.2474 97.1783 20.2474ZM96.8783 29.1524C96.065 29.1524 94.9316 28.7592 94.9316 27.776C94.9316 26.5183 96.345 26.0357 97.5683 26.0357C98.6633 26.0357 99.1766 26.2713 99.8416 26.5817C99.6466 28.0864 98.3183 29.1524 96.8783 29.1524V29.1524ZM110.993 20.6033L108.135 27.6477H108.05L105.095 20.6033H102.413L106.853 30.4475L104.32 35.9254H106.918L113.76 20.6033H110.993V20.6033ZM88.5783 31H91.0716V14.75H88.5783V31Z" fill="white"/>
</svg>
