<svg width="107" height="39" viewBox="0 0 107 39" fill="none" xmlns="http://www.w3.org/2000/svg">
<path d="M9.40002 5.0118C9.40002 6.5419 8.92936 7.6937 7.98935 8.4672C7.11869 9.1809 5.88135 9.5384 4.27868 9.5384C3.48402 9.5384 2.80401 9.5046 2.23468 9.437V1.0767C2.97735 0.959702 3.77735 0.899902 4.64135 0.899902C6.16802 0.899902 7.31869 1.2236 8.09469 1.871C8.96402 2.6029 9.40002 3.6494 9.40002 5.0118ZM7.92669 5.0495C7.92669 4.0576 7.65735 3.2971 7.11869 2.7667C6.58002 2.2376 5.79335 1.9724 4.75735 1.9724C4.31735 1.9724 3.94268 2.001 3.63202 2.0608V8.4165C3.80402 8.4425 4.11868 8.4542 4.57602 8.4542C5.64535 8.4542 6.47069 8.1643 7.05202 7.5845C7.63336 7.0047 7.92669 6.1597 7.92669 5.0495Z" fill="white"/>
<path d="M17.212 6.34816C17.212 7.29066 16.936 8.06286 16.384 8.66866C15.8054 9.29136 15.0387 9.60206 14.0814 9.60206C13.1587 9.60206 12.424 9.30436 11.876 8.70636C11.3294 8.10966 11.056 7.35696 11.056 6.44956C11.056 5.50056 11.3373 4.72186 11.9027 4.11736C12.468 3.51286 13.228 3.20996 14.1854 3.20996C15.108 3.20996 15.8494 3.50766 16.4107 4.10436C16.944 4.68416 17.212 5.43296 17.212 6.34816ZM15.7627 6.39236C15.7627 5.82686 15.6374 5.34196 15.388 4.93766C15.0947 4.44886 14.6774 4.20446 14.1347 4.20446C13.5734 4.20446 13.1467 4.44886 12.8533 4.93766C12.6027 5.34196 12.4787 5.83466 12.4787 6.41706C12.4787 6.98256 12.604 7.46746 12.8533 7.87176C13.156 8.36056 13.5774 8.60496 14.1214 8.60496C14.6547 8.60496 15.0733 8.35666 15.3747 7.85876C15.6334 7.44666 15.7627 6.95786 15.7627 6.39236Z" fill="white"/>
<path d="M27.6867 3.33496L25.72 9.46316H24.44L23.6253 6.80206C23.4187 6.13776 23.2507 5.47736 23.12 4.82216H23.0947C22.9733 5.49556 22.8053 6.15466 22.5893 6.80206L21.724 9.46316H20.4293L18.58 3.33496H20.016L20.7267 6.24826C20.8987 6.93726 21.04 7.59376 21.1533 8.21516H21.1787C21.2827 7.70296 21.4547 7.05036 21.6973 6.26126L22.5893 3.33626H23.728L24.5827 6.19886C24.7893 6.89696 24.9573 7.56906 25.0867 8.21646H25.1253C25.22 7.58596 25.3627 6.91386 25.552 6.19886L26.3147 3.33626H27.6867V3.33496Z" fill="white"/>
<path d="M34.9307 9.46296H33.5333V5.95296C33.5333 4.87136 33.112 4.33055 32.2667 4.33055C31.852 4.33055 31.5173 4.47876 31.2574 4.77646C31 5.07416 30.8694 5.42516 30.8694 5.82686V9.46166H29.472V5.08586C29.472 4.54766 29.4547 3.96396 29.4214 3.33215H30.6494L30.7147 4.29026H30.7534C30.916 3.99256 31.1587 3.74686 31.4774 3.55056C31.856 3.32176 32.28 3.20605 32.744 3.20605C33.3307 3.20605 33.8187 3.39065 34.2067 3.76115C34.6893 4.21486 34.9307 4.89216 34.9307 5.79176V9.46296V9.46296Z" fill="white"/>
<path d="M38.784 9.46305H37.388V0.522949H38.784V9.46305Z" fill="white"/>
<path d="M47.0107 6.34816C47.0107 7.29066 46.7347 8.06286 46.1827 8.66866C45.604 9.29136 44.836 9.60206 43.88 9.60206C42.956 9.60206 42.2213 9.30436 41.6747 8.70636C41.128 8.10966 40.8547 7.35696 40.8547 6.44956C40.8547 5.50056 41.136 4.72186 41.7013 4.11736C42.2667 3.51286 43.0267 3.20996 43.9827 3.20996C44.9067 3.20996 45.6467 3.50766 46.2093 4.10436C46.7427 4.68416 47.0107 5.43296 47.0107 6.34816ZM45.56 6.39236C45.56 5.82686 45.4347 5.34196 45.1853 4.93766C44.8933 4.44886 44.4747 4.20446 43.9333 4.20446C43.3707 4.20446 42.944 4.44886 42.652 4.93766C42.4013 5.34196 42.2773 5.83466 42.2773 6.41706C42.2773 6.98256 42.4027 7.46746 42.652 7.87176C42.9547 8.36056 43.376 8.60496 43.92 8.60496C44.4533 8.60496 44.8707 8.35666 45.172 7.85876C45.432 7.44666 45.56 6.95786 45.56 6.39236Z" fill="white"/>
<path d="M53.7733 9.46296H52.5187L52.4147 8.75706H52.376C51.9467 9.31996 51.3347 9.60206 50.54 9.60206C49.9467 9.60206 49.4667 9.41616 49.1053 9.04696C48.7773 8.71156 48.6133 8.29426 48.6133 7.79896C48.6133 7.05016 48.9333 6.47946 49.5773 6.08426C50.22 5.68906 51.124 5.49536 52.288 5.50446V5.39006C52.288 4.58276 51.8533 4.17976 50.9827 4.17976C50.3627 4.17976 49.816 4.33186 49.344 4.63346L49.06 3.73906C49.644 3.38676 50.3653 3.20996 51.216 3.20996C52.8587 3.20996 53.6827 4.05496 53.6827 5.74496V8.00176C53.6827 8.61406 53.7133 9.10156 53.7733 9.46296ZM52.3227 7.35696V6.41186C50.7813 6.38586 50.0107 6.79796 50.0107 7.64686C50.0107 7.96666 50.0987 8.20586 50.2787 8.36576C50.4587 8.52566 50.688 8.60496 50.9613 8.60496C51.268 8.60496 51.5547 8.51006 51.816 8.32156C52.0787 8.13176 52.24 7.89126 52.3 7.59616C52.3147 7.52986 52.3227 7.44926 52.3227 7.35696Z" fill="white"/>
<path d="M61.7134 9.46305H60.4734L60.408 8.47895H60.3694C59.9734 9.22775 59.2987 9.60215 58.3507 9.60215C57.5934 9.60215 56.9627 9.31225 56.4627 8.73245C55.9627 8.15265 55.7134 7.39995 55.7134 6.47565C55.7134 5.48375 55.984 4.68035 56.528 4.06675C57.0547 3.49475 57.7 3.20875 58.468 3.20875C59.312 3.20875 59.9027 3.48565 60.2387 4.04075H60.2654V0.522949H61.664V7.81205C61.664 8.40875 61.68 8.95865 61.7134 9.46305ZM60.2654 6.87865V5.85685C60.2654 5.68005 60.252 5.53705 60.2267 5.42785C60.148 5.10025 59.9787 4.82465 59.7214 4.60235C59.4614 4.38005 59.148 4.26825 58.7867 4.26825C58.2654 4.26825 57.8574 4.46975 57.5574 4.87405C57.26 5.27835 57.1094 5.79445 57.1094 6.42495C57.1094 7.03075 57.252 7.52215 57.5387 7.90045C57.8414 8.30345 58.2494 8.50495 58.76 8.50495C59.2187 8.50495 59.5854 8.33725 59.864 8.00055C60.1334 7.68985 60.2654 7.31545 60.2654 6.87865Z" fill="white"/>
<path d="M73.664 6.34816C73.664 7.29066 73.388 8.06286 72.836 8.66866C72.2574 9.29136 71.492 9.60206 70.5334 9.60206C69.612 9.60206 68.8774 9.30436 68.328 8.70636C67.7814 8.10966 67.508 7.35696 67.508 6.44956C67.508 5.50056 67.7894 4.72186 68.3547 4.11736C68.92 3.51286 69.68 3.20996 70.6387 3.20996C71.56 3.20996 72.3027 3.50766 72.8627 4.10436C73.396 4.68416 73.664 5.43296 73.664 6.34816ZM72.216 6.39236C72.216 5.82686 72.0907 5.34196 71.8414 4.93766C71.5467 4.44886 71.1307 4.20446 70.5867 4.20446C70.0267 4.20446 69.6 4.44886 69.3054 4.93766C69.0547 5.34196 68.9307 5.83466 68.9307 6.41706C68.9307 6.98256 69.056 7.46746 69.3054 7.87176C69.608 8.36056 70.0294 8.60496 70.5734 8.60496C71.1067 8.60496 71.5267 8.35666 71.828 7.85876C72.0854 7.44666 72.216 6.95786 72.216 6.39236Z" fill="white"/>
<path d="M81.1774 9.46296H79.7814V5.95296C79.7814 4.87136 79.36 4.33055 78.5134 4.33055C78.0987 4.33055 77.764 4.47876 77.5054 4.77646C77.2467 5.07416 77.1174 5.42516 77.1174 5.82686V9.46166H75.7187V5.08586C75.7187 4.54766 75.7027 3.96396 75.6694 3.33215H76.896L76.9614 4.29026H77C77.164 3.99256 77.4067 3.74686 77.724 3.55056C78.104 3.32176 78.5267 3.20605 78.992 3.20605C79.5774 3.20605 80.0654 3.39065 80.4534 3.76115C80.9374 4.21486 81.1774 4.89216 81.1774 5.79176V9.46296V9.46296Z" fill="white"/>
<path d="M90.5813 4.35529H89.0427V7.33229C89.0427 8.08889 89.316 8.46719 89.8573 8.46719C90.108 8.46719 90.316 8.44639 90.48 8.40349L90.516 9.43699C90.24 9.53839 89.8773 9.58909 89.4307 9.58909C88.8787 9.58909 88.4493 9.42529 88.1387 9.09769C87.8267 8.77009 87.672 8.21889 87.672 7.44539V4.35529H86.7534V3.33479H87.672V2.21159L89.0413 1.80859V3.33349H90.58V4.35529H90.5813Z" fill="white"/>
<path d="M97.9787 9.46305H96.58V5.97905C96.58 4.88055 96.1587 4.33065 95.3147 4.33065C94.6667 4.33065 94.224 4.64915 93.9814 5.28615C93.94 5.42005 93.916 5.58385 93.916 5.77625V9.46175H92.52V0.522949H93.916V4.21625H93.9427C94.3827 3.54415 95.0134 3.20875 95.8307 3.20875C96.4094 3.20875 96.888 3.39335 97.268 3.76385C97.7414 4.22535 97.9787 4.91175 97.9787 5.81915V9.46305V9.46305Z" fill="white"/>
<path d="M105.609 6.10894C105.609 6.35334 105.591 6.55874 105.557 6.72644H101.367C101.385 7.33224 101.585 7.79374 101.973 8.11354C102.328 8.39954 102.785 8.54254 103.345 8.54254C103.965 8.54254 104.531 8.44634 105.04 8.25264L105.259 9.19904C104.663 9.45124 103.961 9.57734 103.149 9.57734C102.176 9.57734 101.409 9.29784 100.855 8.73884C100.297 8.17984 100.021 7.42974 100.021 6.48854C100.021 5.56424 100.279 4.79464 100.797 4.18104C101.339 3.52584 102.071 3.19824 102.995 3.19824C103.899 3.19824 104.585 3.52584 105.049 4.18104C105.424 4.70104 105.609 5.34454 105.609 6.10894ZM104.276 5.75664C104.287 5.35234 104.195 5.00394 104.005 4.71014C103.763 4.33184 103.393 4.14204 102.893 4.14204C102.437 4.14204 102.065 4.32664 101.781 4.69714C101.549 4.99224 101.412 5.34454 101.367 5.75664H104.276Z" fill="white"/>
<path d="M15.5267 32.9552H12.4987L10.84 27.8735H5.07466L3.49466 32.9552H0.546661L6.25866 15.6548H9.78666L15.5267 32.9552ZM10.34 25.7415L8.83999 21.224C8.68133 20.7625 8.38399 19.6757 7.94533 17.9649H7.89199C7.71732 18.7007 7.43599 19.7875 7.04932 21.224L5.57599 25.7415H10.34V25.7415Z" fill="white"/>
<path d="M30.216 26.5647C30.216 28.6863 29.628 30.3633 28.452 31.5944C27.3987 32.6903 26.0907 33.2376 24.5293 33.2376C22.844 33.2376 21.6333 32.6474 20.896 31.467H20.8427V38.0385H18V24.5874C18 23.2536 17.964 21.8847 17.8947 20.4807H20.3947L20.5533 22.458H20.6067C21.5547 20.9682 22.9933 20.2246 24.924 20.2246C26.4333 20.2246 27.6933 20.8057 28.7013 21.9692C29.712 23.134 30.216 24.6654 30.216 26.5647ZM27.32 26.6661C27.32 25.4519 27.04 24.4509 26.4773 23.6631C25.8627 22.8415 25.0373 22.4307 24.0027 22.4307C23.3013 22.4307 22.664 22.6595 22.0947 23.1106C21.524 23.5656 21.1506 24.1597 20.976 24.8955C20.888 25.2387 20.844 25.5195 20.844 25.7405V27.8205C20.844 28.7279 21.1293 29.4936 21.7 30.1189C22.2707 30.7442 23.012 31.0562 23.924 31.0562C24.9947 31.0562 25.828 30.6532 26.424 29.8498C27.0213 29.0451 27.32 27.9843 27.32 26.6661Z" fill="white"/>
<path d="M44.932 26.5647C44.932 28.6863 44.344 30.3633 43.1667 31.5944C42.1147 32.6903 40.8067 33.2376 39.2453 33.2376C37.56 33.2376 36.3493 32.6474 35.6133 31.467H35.56V38.0385H32.7173V24.5874C32.7173 23.2536 32.6813 21.8847 32.612 20.4807H35.112L35.2707 22.458H35.324C36.2707 20.9682 37.7093 20.2246 39.6413 20.2246C41.1493 20.2246 42.4093 20.8057 43.42 21.9692C44.4267 23.134 44.932 24.6654 44.932 26.5647ZM42.036 26.6661C42.036 25.4519 41.7547 24.4509 41.192 23.6631C40.5773 22.8415 39.7547 22.4307 38.7187 22.4307C38.016 22.4307 37.38 22.6595 36.8093 23.1106C36.2387 23.5656 35.8667 24.1597 35.692 24.8955C35.6053 25.2387 35.56 25.5195 35.56 25.7405V27.8205C35.56 28.7279 35.8453 29.4936 36.4133 30.1189C36.984 30.7429 37.7253 31.0562 38.64 31.0562C39.7107 31.0562 40.544 30.6532 41.14 29.8498C41.7373 29.0451 42.036 27.9843 42.036 26.6661Z" fill="white"/>
<path d="M61.3853 28.1037C61.3853 29.5753 60.8613 30.7726 59.8093 31.6969C58.6533 32.707 57.044 33.2114 54.976 33.2114C53.0667 33.2114 51.536 32.8526 50.3773 32.1337L51.036 29.8236C52.284 30.5594 53.6533 30.9286 55.1453 30.9286C56.216 30.9286 57.0493 30.692 57.648 30.2214C58.244 29.7508 58.5413 29.119 58.5413 28.3312C58.5413 27.6292 58.296 27.0377 57.804 26.558C57.3147 26.0783 56.4973 25.6324 55.356 25.2203C52.2493 24.0906 50.6973 22.4357 50.6973 20.2595C50.6973 18.8373 51.2413 17.6712 52.3307 16.7638C53.416 15.8551 54.864 15.4014 56.6747 15.4014C58.2893 15.4014 59.6307 15.6757 60.7013 16.223L59.9906 18.4824C58.9906 17.952 57.86 17.6868 56.5947 17.6868C55.5947 17.6868 54.8133 17.9273 54.2533 18.4057C53.78 18.8334 53.5427 19.3547 53.5427 19.9722C53.5427 20.656 53.8133 21.2215 54.3573 21.6661C54.8307 22.0769 55.6907 22.5215 56.9387 23.0012C58.4653 23.6005 59.5867 24.3012 60.308 25.1046C61.0267 25.9054 61.3853 26.9077 61.3853 28.1037Z" fill="white"/>
<path d="M70.784 22.5604H67.6507V28.6171C67.6507 30.1576 68.2027 30.9272 69.3093 30.9272C69.8173 30.9272 70.2387 30.8843 70.572 30.7985L70.6507 32.9032C70.0907 33.1073 69.3533 33.21 68.44 33.21C67.3173 33.21 66.44 32.8759 65.8067 32.209C65.176 31.5408 64.8587 30.4202 64.8587 28.8459V22.5578H62.992V20.4778H64.8587V18.1937L67.6507 17.3721V20.4778H70.784V22.5604Z" fill="white"/>
<path d="M84.9213 26.6151C84.9213 28.5326 84.3586 30.1069 83.236 31.338C82.0586 32.6055 80.496 33.2373 78.548 33.2373C76.6706 33.2373 75.176 32.6302 74.0613 31.416C72.9466 30.2018 72.3893 28.6691 72.3893 26.8218C72.3893 24.8887 72.9626 23.3053 74.1133 22.0742C75.2613 20.8418 76.8106 20.2256 78.7586 20.2256C80.636 20.2256 82.1466 20.8327 83.2866 22.0482C84.3773 23.2273 84.9213 24.7496 84.9213 26.6151ZM81.972 26.7048C81.972 25.5543 81.72 24.5676 81.2093 23.7447C80.6133 22.7489 79.7613 22.2523 78.6573 22.2523C77.5146 22.2523 76.6466 22.7502 76.0506 23.7447C75.54 24.5689 75.288 25.5712 75.288 26.7568C75.288 27.9073 75.54 28.894 76.0506 29.7156C76.6653 30.7114 77.524 31.208 78.632 31.208C79.7173 31.208 80.5693 30.701 81.184 29.6896C81.708 28.8511 81.972 27.854 81.972 26.7048Z" fill="white"/>
<path d="M94.1613 22.9182C93.88 22.8675 93.58 22.8415 93.2653 22.8415C92.2653 22.8415 91.492 23.2094 90.948 23.9465C90.4747 24.5965 90.2373 25.4181 90.2373 26.41V32.9555H87.396L87.4226 24.4093C87.4226 22.9715 87.3866 21.6624 87.316 20.482H89.792L89.896 22.8688H89.9747C90.2747 22.0485 90.748 21.3881 91.396 20.8928C92.0293 20.4469 92.7133 20.2246 93.4507 20.2246C93.7133 20.2246 93.9507 20.2428 94.1613 20.2753V22.9182Z" fill="white"/>
<path d="M106.875 26.1279C106.875 26.6245 106.841 27.0431 106.771 27.385H98.2427C98.276 28.6174 98.688 29.5599 99.48 30.2099C100.199 30.791 101.128 31.0822 102.269 31.0822C103.532 31.0822 104.684 30.8859 105.72 30.492L106.165 32.416C104.955 32.9308 103.525 33.1869 101.876 33.1869C99.892 33.1869 98.3347 32.6175 97.2013 31.48C96.0707 30.3425 95.504 28.815 95.504 26.8988C95.504 25.0177 96.0307 23.4512 97.0853 22.2019C98.1893 20.8681 99.6813 20.2012 101.559 20.2012C103.403 20.2012 104.799 20.8681 105.747 22.2019C106.497 23.2614 106.875 24.5718 106.875 26.1279ZM104.164 25.409C104.183 24.5874 103.997 23.8776 103.612 23.2783C103.12 22.5074 102.364 22.1226 101.347 22.1226C100.417 22.1226 99.6613 22.4983 99.084 23.2523C98.6107 23.8516 98.3293 24.5705 98.2427 25.4077H104.164V25.409Z" fill="white"/>
</svg>
