<svg width="24" height="24" viewBox="0 0 24 24" fill="none" xmlns="http://www.w3.org/2000/svg">
<path d="M21.8849 11.5342C19.627 7.24533 15.8611 5 12 5C8.13887 5 4.373 7.24533 2.11513 11.5342C1.96162 11.8257 1.96162 12.1743 2.11513 12.4658C4.373 16.7547 8.13887 19 12 19C15.8611 19 19.627 16.7547 21.8849 12.4658C22.0384 12.1743 22.0384 11.8257 21.8849 11.5342Z" fill="#EFEFEF"/>
<path d="M12 9C10.3431 9 9 10.3431 9 12C9 13.6569 10.3431 15 12 15C13.6569 15 15 13.6569 15 12C15 10.3431 13.6569 9 12 9Z" fill="white"/>
<path fill-rule="evenodd" clip-rule="evenodd" d="M19.7071 4.29289C20.0976 4.68342 20.0976 5.31658 19.7071 5.70711L5.70711 19.7071C5.31658 20.0976 4.68342 20.0976 4.29289 19.7071C3.90237 19.3166 3.90237 18.6834 4.29289 18.2929L18.2929 4.29289C18.6834 3.90237 19.3166 3.90237 19.7071 4.29289Z" fill="#1F1F1F"/>
</svg>
